<!-- icon666.com - MILLIONS vector ICONS FREE --><svg version="1.1" id="Capa_1" xmlns="http://www.w3.org/2000/svg" xmlns:xlink="http://www.w3.org/1999/xlink" x="0px" y="0px" viewBox="0 0 512 512" style="enable-background:new 0 0 512 512;" xml:space="preserve"><path style="fill:#FC1A40;" d="M346.002,150h-180c-8.401,0-15,6.599-15,15v120c0,8.399,6.599,15,15,15h180c8.401,0,15-6.601,15-15 V165C361.002,156.599,354.403,150,346.002,150z"></path><path style="fill:#C60034;" d="M361.002,165v120c0,8.399-6.599,15-15,15h-90V150h90C354.403,150,361.002,156.599,361.002,165z"></path><rect x="241" y="150" style="fill:#FEA832;" width="30" height="150"></rect><rect x="256" y="150" style="fill:#FE9923;" width="15" height="150"></rect><path style="fill:#FEA832;" d="M361.002,59.469c0,33.3-27.001,60-60,60h-75c-24.6,0-45-20.099-45-45c0-33.3,34.501-54.6,65.4-39.3 c2.1-5.099,5.099-10.201,9.6-14.7c0.601-1.201,1.5-2.1,2.701-3.3C294.102-18.531,361.002,4.268,361.002,59.469z"></path><path style="fill:#FE9923;" d="M361.002,59.469c0,33.3-27.001,60-60,60h-45v-99c0.601-1.201,1.5-2.1,2.701-3.3 C294.102-18.531,361.002,4.268,361.002,59.469z"></path><path style="fill:#FF3E75;" d="M376.002,90h-240c-8.401,0-15,6.599-15,15v60c0,8.399,6.599,15,15,15h240c8.401,0,15-6.601,15-15v-60 C391.002,96.599,384.403,90,376.002,90z"></path><path style="fill:#FC1A40;" d="M391.002,105v60c0,8.399-6.599,15-15,15h-120V90h120C384.403,90,391.002,96.599,391.002,105z"></path><rect x="241" y="90" style="fill:#FEDB41;" width="30" height="90"></rect><path style="fill:#FEDBAB;" d="M239.998,455.755c0.005-35.821-14.22-70.175-39.549-95.504l-59.518-59.518 c-10.867-10.869-28.193-11.765-40.124-2.073c-13.808,11.213-14.881,31.912-2.305,44.493l52.233,52.242 c5.859,5.859,5.859,15.352,0,21.211s-15.352,5.859-21.211,0l-56.353-56.367c-8.481-8.481-13.154-19.761-13.184-31.758l0.004-0.015 c0-0.005-0.004-0.009-0.004-0.009V301h0.015v-90c0-16.569-13.431-30-30-30s-30,13.431-30,30v14.855v72.427c0,1.053,0,1.934,0,2.717 h0.057l0.048,50.563c0.018,19.72,7.861,38.628,21.806,52.571l63.68,63.682c4.144,4.142,4.395,8.099,4.395,13.184l35.639,19.374 h95.001L237.239,481C240.612,471.51,239.996,466,239.998,455.755z"></path><path style="fill:#FEC478;" d="M511.984,225.855V211c0-16.569-13.431-30-30-30s-30,13.431-30,30h0.018v120h-0.255 c-0.639,11.038-5.056,21.361-12.933,29.238l-56.353,56.367c-5.859,5.859-15.352,5.859-21.211,0s-5.859-15.352,0-21.211 l52.233-52.242c5.909-5.912,8.542-13.636,8.518-21.306v-2.307c-0.635-7.841-4.169-15.476-10.823-20.88 c-11.931-9.692-29.257-8.796-40.124,2.073l-59.518,59.518c-25.329,25.329-39.554,59.683-39.549,95.504 c0.002,10.245-0.613,15.754,2.759,25.245l21.006,19.374h96.218L421.998,481v-2.578c0-3.94,1.597-7.808,4.395-10.605l63.68-63.682 c13.945-13.943,21.788-32.851,21.806-52.571L511.927,301h0.057v-14.927c0.005-0.024,0.015-0.048,0.015-0.073v-60 C511.998,225.951,511.984,225.905,511.984,225.855z"></path><path style="fill:#BF6015;" d="M451.002,497c0,8.399-6.599,15-15,15h-360c-8.401,0-15-6.601-15-15c0-8.401,6.599-15,15-15h360 C444.403,482,451.002,488.599,451.002,497z"></path><rect x="256" y="90" style="fill:#FCBF29;" width="15" height="90"></rect><path style="fill:#994C10;" d="M451.002,497c0,8.399-6.599,15-15,15h-180v-30h180C444.403,482,451.002,488.599,451.002,497z"></path></svg>